<svg xmlns="http://www.w3.org/2000/svg" viewBox="0 0 929 694">
  <defs>
    <linearGradient id="linear-gradient" x1=".5" x2=".5" y2=".884" gradientUnits="objectBoundingBox">
      <stop offset="0" stop-color="#859ea5"/>
      <stop offset="1" stop-color="#b8d2d9"/>
    </linearGradient>
    <filter id="Path_26" width="929" height="277.008" x="0" y="416.992" filterUnits="userSpaceOnUse">
      <feOffset dy="-4"/>
      <feGaussianBlur result="blur" stdDeviation="8"/>
      <feFlood flood-color="#97e5ef" flood-opacity=".251"/>
      <feComposite in2="blur" operator="in"/>
      <feComposite in="SourceGraphic"/>
    </filter>
  </defs>
  <path id="Path_36" fill="url(#linear-gradient)" d="M10 0h881v674l-880.937-.072Z" data-name="Path 36" transform="translate(14)"/>
  <path id="Path_23" fill="#7eb1c1" d="M-277 342.736c84.638-8.364 105.035-12.9 199.693-48.435 24.9-9.347 223.962-62.6 232.584-63.405s78.81 13.421 145.659 9.687C349.718 236.371 437.2 208 437.2 208c57.678 3.837 161.175 36.066 166.8 36.106V599h-881Z" data-name="Path 23" opacity=".64" transform="translate(301 75)"/>
  <g filter="url(#Path_26)">
    <path id="Path_26-2" fill="#528695" d="M-270 253.162c100.08-4.686 53.449-18.146 272.523-28.294 9.4-.21 27.5-1.046 46.987-.884 9.706-.842 71.975 1.32 93.973-1.768 7.761 1.208 69.349-4.483 70.48-4.421 1.114-.018 50.418.3 54.035-.884 19.42-2.191 45.508.324 65.781-3.537 42.5-6.68 125.167-9.418 136.261-9.726s139.871 9.719 140.96 9.726v219.275h-881Z" data-name="Path 26" transform="translate(294 241.35)"/>
  </g>
  <path id="Path_38" fill="#91c2d1" d="M2346.215 1439.8s14.687 23.441 20.656 42.161 7.909 31.814 11.369 53.016-1.749-37.439 3.993-45.392c.266-.467 7.4-1.122 9.05 22.99 0 0 2.851-10.516-1.054-26.168s-17.243-22.222-17.358-22.514c1.09 8.885.965 13.7.119 12.04-7.472-14.641-19.074-28.92-26.775-36.133Z" data-name="Path 38" transform="rotate(-21 -1611.387907 5957.096066)"/>
  <ellipse id="Ellipse_11" cx="1.5" cy="2" fill="#d0f5ff" data-name="Ellipse 11" opacity=".373" rx="1.5" ry="2" transform="translate(257.95 441)"/>
  <ellipse id="Ellipse_12" cx="2.5" cy="2" fill="#d0f5ff" data-name="Ellipse 12" opacity=".373" rx="2.5" ry="2" transform="translate(252.95 437)"/>
  <g id="Group_16" fill="#528695" data-name="Group 16" transform="translate(168.95 -123)">
    <path id="Path_35" d="M1.862-.207c.786 0 1.094.987 1.094 1.758s-.308 1.242-1.094 1.242A1.325 1.325 0 0 1 .4 1.551C.4.78 1.077-.207 1.862-.207Z" data-name="Path 35" transform="translate(48.138 584.207)"/>
    <path id="Path_32" d="M1.021 0C2.037 0 .908 4.835.308 4.726S0 0 1.021 0Z" data-name="Path 32" transform="rotate(-11 3089.98814 38.288474)"/>
    <path id="Path_34" d="M1.021 0C2.037 0 .908 4.835.308 4.726S0 0 1.021 0Z" data-name="Path 34" transform="matrix(.999 -.035 .035 .999 48.596 590.148)"/>
    <path id="Path_30" d="M1.924-.429c1.016 0 2.1 4.292 1 6-3.168-.522-2 0-2 0-1.444-1.376-.016-6 1-6Z" data-name="Path 30" transform="translate(48.076 586.429)"/>
    <path id="Path_33" d="M.729 0c.726 0-.08 3.444-.509 3.366S0 0 .729 0Z" data-name="Path 33" transform="rotate(11 -3026.59347 549.602215)"/>
  </g>
  <g id="Group_15" fill="#528695" data-name="Group 15" transform="translate(176.95 -116)">
    <path id="Rectangle_10" d="M0 0h22v16H0z" data-name="Rectangle 10" transform="translate(79 569)"/>
    <path id="Path_29" d="m14.981.684 15 14h-30Z" data-name="Path 29" transform="translate(75.019 557.316)"/>
    <path id="Rectangle_11" d="M0 0h2v3H0z" data-name="Rectangle 11" transform="translate(83 562)"/>
    <path id="Rectangle_12" d="M0 0h3v6H0z" data-name="Rectangle 12" transform="translate(84 578)"/>
  </g>
  <g id="Group_12" fill="#528695" data-name="Group 12" transform="translate(411.977 -113.989)">
    <path id="Path_27" d="M.067-.378h5s-1.586 11.154 0 16-7.079 4.811-5 0 0-16 0-16Z" data-name="Path 27" transform="translate(303.624 545.747)"/>
    <path id="Path_28" d="M6.691-1.632s5 7.462 5 10-5 5-5 5-6-2.462-6-5 6-10 6-10Z" data-name="Path 28" transform="translate(300 540)"/>
  </g>
  <g id="Group_13" fill="#528695" data-name="Group 13" transform="translate(432.174 -120.742)">
    <path id="Path_27-2" d="M.209-.478h7s-1.987 13.929 0 20-9.6 6.028-7 0 0-20 0-20Z" data-name="Path 27" transform="translate(304.285 547.599)"/>
    <path id="Path_28-2" d="M7.494-1.879s7 9.82 7 13-7 6-7 6-7-2.82-7-6 7-13 7-13Z" data-name="Path 28" transform="translate(300 540)"/>
  </g>
  <path id="Path_37" fill="#91c2d1" d="M2352.759 1443.861s37.059 31.108 50.289 70.154c5.689 16.79 56.763 57.026 63.776 67.155l8.311-47.135c-1.154-3.835-88.067-80.168-122.376-90.174Z" data-name="Path 37" transform="matrix(.985 -.174 .174 .985 -1798.978 -716.929)"/>
</svg>