<svg xmlns="http://www.w3.org/2000/svg" xmlns:xlink="http://www.w3.org/1999/xlink" width="889.121" height="674" viewBox="0 0 889.121 674">
  <defs>
    <linearGradient id="linear-gradient" x1="0.5" x2="0.5" y2="1" gradientUnits="objectBoundingBox">
      <stop offset="0" stop-color="#5ec5e2"/>
      <stop offset="1" stop-color="#96e8ff"/>
    </linearGradient>
  </defs>
  <path id="Path_36" data-name="Path 36" d="M10,0H891V674l-880.937-.072Z" transform="translate(-10)" fill="url(#linear-gradient)"/>
  <path id="Path_23" data-name="Path 23" d="M-277,342.736c84.638-8.364,105.035-12.9,199.693-48.435,24.9-9.347,223.962-62.6,232.584-63.405s78.81,13.421,145.659,9.687C349.718,236.371,437.2,208,437.2,208c57.678,3.837,161.175,36.066,166.8,36.106V599H-277Z" transform="translate(277 75)" fill="#57b0c9" opacity="0.64"/>
  <path id="Path_38" data-name="Path 38" d="M2346.215,1439.8s14.687,23.441,20.656,42.161,7.909,31.814,11.369,53.016-1.749-37.439,3.993-45.392c.266-.467,7.4-1.122,9.05,22.99,0,0,2.851-10.516-1.054-26.168s-17.243-22.222-17.358-22.514c1.09,8.885.965,13.7.119,12.04C2365.518,1461.292,2353.916,1447.013,2346.215,1439.8Z" transform="translate(-2265.86 -181.802) rotate(-21)" fill="#6dcbe5"/>
  <ellipse id="Ellipse_11" data-name="Ellipse 11" cx="1.5" cy="2" rx="1.5" ry="2" transform="translate(233.95 441)" fill="#d0f5ff" opacity="0.373"/>
  <ellipse id="Ellipse_12" data-name="Ellipse 12" cx="2.5" cy="2" rx="2.5" ry="2" transform="translate(228.95 437)" fill="#d0f5ff" opacity="0.373"/>
  <g id="Group_16" data-name="Group 16" transform="translate(144.95 -123)">
    <path id="Path_35" data-name="Path 35" d="M1.862-.207c.786,0,1.094.987,1.094,1.758S2.648,2.793,1.862,2.793A1.325,1.325,0,0,1,.4,1.551C.4.78,1.077-.207,1.862-.207Z" transform="translate(48.138 584.207)" fill="#4c899b"/>
    <path id="Path_32" data-name="Path 32" d="M1.021,0C2.037,0,.908,4.835.308,4.726S0,0,1.021,0Z" transform="translate(49.466 590.301) rotate(-11)" fill="#4c899b"/>
    <path id="Path_34" data-name="Path 34" d="M1.021,0C2.037,0,.908,4.835.308,4.726S0,0,1.021,0Z" transform="matrix(0.999, -0.035, 0.035, 0.999, 48.596, 590.148)" fill="#4c899b"/>
    <path id="Path_30" data-name="Path 30" d="M1.924-.429c1.016,0,2.1,4.292,1,6-3.168-.522-2,0-2,0C-.52,4.195.908-.429,1.924-.429Z" transform="translate(48.076 586.429)" fill="#4c899b"/>
    <path id="Path_33" data-name="Path 33" d="M.729,0C1.455,0,.649,3.444.22,3.366S0,0,.729,0Z" transform="translate(49.262 587.599) rotate(11)" fill="#4c899b"/>
  </g>
  <g id="Group_15" data-name="Group 15" transform="translate(152.95 -116)">
    <rect id="Rectangle_10" data-name="Rectangle 10" width="22" height="16" transform="translate(79 569)" fill="#4c899b"/>
    <path id="Path_29" data-name="Path 29" d="M14.981.684l15,14h-30Z" transform="translate(75.019 557.316)" fill="#4c899b"/>
    <rect id="Rectangle_11" data-name="Rectangle 11" width="2" height="3" transform="translate(83 562)" fill="#4c899b"/>
    <rect id="Rectangle_12" data-name="Rectangle 12" width="3" height="6" transform="translate(84 578)" fill="#4c899b"/>
  </g>
  <g id="Group_12" data-name="Group 12" transform="translate(387.977 -113.989)">
    <path id="Path_27" data-name="Path 27" d="M.067-.378h5s-1.586,11.154,0,16-7.079,4.811-5,0S.067-.378.067-.378Z" transform="translate(303.624 545.747)" fill="#4c899b"/>
    <path id="Path_28" data-name="Path 28" d="M6.691-1.632s5,7.462,5,10-5,5-5,5-6-2.462-6-5S6.691-1.632,6.691-1.632Z" transform="translate(300 540)" fill="#4c899b"/>
  </g>
  <g id="Group_13" data-name="Group 13" transform="translate(408.174 -120.742)">
    <path id="Path_27-2" data-name="Path 27" d="M.209-.478h7s-1.987,13.929,0,20-9.6,6.028-7,0S.209-.478.209-.478Z" transform="translate(304.285 547.599)" fill="#4c899b"/>
    <path id="Path_28-2" data-name="Path 28" d="M7.494-1.879s7,9.82,7,13-7,6-7,6-7-2.82-7-6S7.494-1.879,7.494-1.879Z" transform="translate(300 540)" fill="#4c899b"/>
  </g>
  <path id="Path_37" data-name="Path 37" d="M2352.759,1443.861s37.059,31.108,50.289,70.154c5.689,16.79,56.763,57.026,63.776,67.155l8.311-47.135C2473.981,1530.2,2387.068,1453.867,2352.759,1443.861Z" transform="matrix(0.985, -0.174, 0.174, 0.985, -1822.978, -716.929)" fill="#6dcbe5"/>
  <rect id="Rectangle_28" data-name="Rectangle 28" width="881" height="166" transform="translate(0 508)" fill="#4c899b"/>
</svg>
