<svg xmlns="http://www.w3.org/2000/svg" xmlns:xlink="http://www.w3.org/1999/xlink" width="422.638" height="830.487" viewBox="0 0 422.638 830.487">
  <defs>
    <filter id="Path_26" x="0" y="524.539" width="422.638" height="305.948" filterUnits="userSpaceOnUse">
      <feOffset dy="-4" input="SourceAlpha"/>
      <feGaussianBlur stdDeviation="8" result="blur"/>
      <feFlood flood-color="#97e5ef" flood-opacity="0.251"/>
      <feComposite operator="in" in2="blur"/>
      <feComposite in="SourceGraphic"/>
    </filter>
  </defs>
  <g id="Group_14" data-name="Group 14" transform="translate(22.73)">
    <path id="Path_36" data-name="Path 36" d="M10.479,0H386V812H11.177Z" transform="translate(-11)" fill="#27cdff"/>
    <path id="Path_25" data-name="Path 25" d="M103.6,357.923c-36.667-9.5-16.5-13.308-57.5-53.664S-29.164,269.817-59.2,240.939c-26.024-25.023-62.71-67.292-69.245-67.174s-30.951,14.44-51.048,11.5c-21.134-4.783-31.662-32.164-52.2-49.291-17.138,2.328-39.644,49.291-39.644,49.291l2.058,555.326H103.6Z" transform="translate(270.282 72)" fill="#c5dee2" opacity="0.543"/>
    <path id="Path_1" data-name="Path 1" d="M-278.411,332.479c35.963-8.1,16.179-11.349,56.4-45.765s73.808-29.373,103.264-54c45.017-37.637,65.1,10.106,110.619,4.311,20.728-4.079,32.154-22.376,52.295-36.982,20.442-17.736,54.2-16.759,54.2-16.759l.126,524.3H-275.382Z" transform="translate(277 104)" fill="#3ebbe0"/>
    <path id="Path_23" data-name="Path 23" d="M-276.921,361.4c36.026-9.5,44.817-15.1,85.108-55.454s38.81-14.723,68.318-43.6c46.688-27.576,47.173-10.108,92.772-16.9,20.764-4.783,54.658-18.7,62.181-22.575,14.922-4.969,31.535,7.272,49.846,13.986,6.291,2.307,14.938,4.855,17.333,4.9,2.038.037-1.3,410.511-1.3,410.511H-276.921Z" transform="translate(277 160)" fill="#177e96" opacity="0.64"/>
    <g transform="matrix(1, 0, 0, 1, -22.73, 0)" filter="url(#Path_26)">
      <path id="Path_26-2" data-name="Path 26" d="M-268.73,259.843c42.6-5.3,21.116-20.713,114.365-32.19,4-.237,11.582-1.64,19.875-1.457,4.132-.952,31.505,2.049,40.869-1.444,3.3,1.367,28.988-5.086,29.469-5.016.474-.02,21.627.206,23.167-1.137,8.266-2.478,19.482.034,28.112-4.333,18.089-7.555,52.736-10.721,57.458-11.07s59.939,11.062,60.4,11.07c2.076.033,0,246.87,0,246.87H-268.73Z" transform="translate(292.73 349.35)" fill="#07707e" opacity="0.64"/>
    </g>
    <g id="Group_12" data-name="Group 12" transform="translate(-2.691 -6.368)">
      <path id="Path_27" data-name="Path 27" d="M.075,0H5.328s-1.586,10.912,0,15.758S-2,20.569.075,15.758.075,0,.075,0Z" transform="translate(303.624 545.747)" fill="#117c90"/>
      <path id="Path_28" data-name="Path 28" d="M6.325-1.577s5.727,7.44,5.727,9.979-5.727,4.841-5.727,4.841S.767,10.94.767,8.4,6.325-1.577,6.325-1.577Z" transform="translate(300 540)" fill="#117c90"/>
    </g>
    <g id="Group_13" data-name="Group 13" transform="translate(17.506 -13.121)">
      <path id="Path_27-2" data-name="Path 27" d="M.155,0H6.736s-1.987,13.672,0,19.743-9.185,6.028-6.581,0S.155,0,.155,0Z" transform="translate(304.285 547.599)" fill="#117c90"/>
      <path id="Path_28-2" data-name="Path 28" d="M7.731-1.577s7.175,9.322,7.175,12.5-7.175,6.066-7.175,6.066S.767,14.105.767,10.925,7.731-1.577,7.731-1.577Z" transform="translate(300 540)" fill="#117c90"/>
    </g>
    <rect id="Rectangle_10" data-name="Rectangle 10" width="22" height="16" transform="translate(79 569)" fill="#117c90"/>
    <path id="Path_29" data-name="Path 29" d="M15,.689l14.98,13.67H0Z" transform="translate(75.019 557.316)" fill="#117c90"/>
    <rect id="Rectangle_11" data-name="Rectangle 11" width="2" height="3" transform="translate(83 562)" fill="#117c90"/>
    <ellipse id="Ellipse_11" data-name="Ellipse 11" cx="1.5" cy="2" rx="1.5" ry="2" transform="translate(81 557)" fill="#fff" opacity="0.373"/>
    <ellipse id="Ellipse_12" data-name="Ellipse 12" cx="2.5" cy="2" rx="2.5" ry="2" transform="translate(76 553)" fill="#fff" opacity="0.373"/>
    <path id="Path_35" data-name="Path 35" d="M1.422,0A1.374,1.374,0,0,1,2.8,1.4a1.374,1.374,0,0,1-1.38,1.4A1.41,1.41,0,0,1,0,1.4,1.41,1.41,0,0,1,1.422,0Z" transform="translate(48.138 581.207)" fill="#117c90"/>
    <path id="Path_32" data-name="Path 32" d="M1.021,0C2.037,0,.908,4.835.308,4.726S0,0,1.021,0Z" transform="translate(49.466 587.301) rotate(-11)" fill="#117c90"/>
    <path id="Path_34" data-name="Path 34" d="M1.021,0C2.037,0,.908,4.835.308,4.726S0,0,1.021,0Z" transform="matrix(0.999, -0.035, 0.035, 0.999, 48.596, 587.148)" fill="#117c90"/>
    <path id="Path_30" data-name="Path 30" d="M1.763,0C2.779,0,4.093,3.68,3,5.388c-3.168-.522-1.988-.153-1.988-.153C-.435,3.859.747,0,1.763,0Z" transform="translate(48.076 583.429)" fill="#117c90"/>
    <path id="Path_33" data-name="Path 33" d="M.729,0C1.455,0,.649,3.444.22,3.366S0,0,.729,0Z" transform="translate(49.262 584.599) rotate(11)" fill="#117c90"/>
    <rect id="Rectangle_12" data-name="Rectangle 12" width="3" height="6" transform="translate(84 578)" fill="#117c90"/>
  </g>
</svg>
