<svg xmlns="http://www.w3.org/2000/svg" width="187" height="164.462" viewBox="0 0 187 164.462">
  <g id="Group_10" data-name="Group 10" transform="translate(-163 -178)">
    <g id="Group_9" data-name="Group 9" transform="translate(3.725 14)">
      <path id="Path_8" data-name="Path 8" d="M5.655,0l6.359,62.315L0,60.051Z" transform="matrix(-0.985, -0.174, 0.174, -0.985, 217.447, 328.462)" fill="#ffce00"/>
      <path id="Path_7" data-name="Path 7" d="M0,0H29.25V9.538L3.422,9.4Z" transform="translate(216.004 264.907) rotate(20)" fill="#ffce00"/>
      <path id="Path_9" data-name="Path 9" d="M0,0H10.174l-.08,42.146L0,40.7Z" transform="matrix(0.966, 0.259, -0.259, 0.966, 242.458, 241.02)" fill="#ffce00"/>
    </g>
    <g id="Group_8" data-name="Group 8" transform="translate(29 -9)">
      <ellipse id="Ellipse_8" data-name="Ellipse 8" cx="33" cy="32.5" rx="33" ry="32.5" transform="translate(222 195)" fill="#fff"/>
      <ellipse id="Ellipse_1" data-name="Ellipse 1" cx="28.5" cy="28" rx="28.5" ry="28" transform="translate(134 215)" fill="#fff"/>
      <circle id="Ellipse_7" data-name="Ellipse 7" cx="27" cy="27" r="27" transform="translate(267 211)" fill="#fff"/>
      <ellipse id="Ellipse_9" data-name="Ellipse 9" cx="33" cy="32.5" rx="33" ry="32.5" transform="translate(222 212)" fill="#fff"/>
      <circle id="Ellipse_6" data-name="Ellipse 6" cx="46.5" cy="46.5" r="46.5" transform="translate(157 187)" fill="#fff"/>
    </g>
  </g>
</svg>
