<svg xmlns="http://www.w3.org/2000/svg" width="187" height="183" viewBox="0 0 187 183">
  <g id="Group_11" data-name="Group 11" transform="translate(-163 -178)">
    <g id="Group_8" data-name="Group 8" transform="translate(29 -9)">
      <ellipse id="Ellipse_8" data-name="Ellipse 8" cx="33" cy="32.5" rx="33" ry="32.5" transform="translate(222 195)" fill="#fff"/>
      <ellipse id="Ellipse_1" data-name="Ellipse 1" cx="28.5" cy="28" rx="28.5" ry="28" transform="translate(134 215)" fill="#fff"/>
      <circle id="Ellipse_7" data-name="Ellipse 7" cx="27" cy="27" r="27" transform="translate(267 211)" fill="#fff"/>
      <ellipse id="Ellipse_9" data-name="Ellipse 9" cx="33" cy="32.5" rx="33" ry="32.5" transform="translate(222 212)" fill="#fff"/>
      <circle id="Ellipse_6" data-name="Ellipse 6" cx="46.5" cy="46.5" r="46.5" transform="translate(157 187)" fill="#fff"/>
    </g>
    <path id="Path_11" data-name="Path 11" d="M10.753-18.22S21.506.588,21.506,6.527A10.753,10.753,0,1,1,0,6.527C0,.588,10.753-18.22,10.753-18.22Z" transform="translate(204 316.72)" fill="#2cceff"/>
    <path id="Path_12" data-name="Path 12" d="M10.753-18.22S21.506.588,21.506,6.527A10.753,10.753,0,1,1,0,6.527C0,.588,10.753-18.22,10.753-18.22Z" transform="translate(233 298.72)" fill="#2cceff"/>
    <path id="Path_13" data-name="Path 13" d="M10.753-18.22S21.506.588,21.506,6.527A10.753,10.753,0,1,1,0,6.527C0,.588,10.753-18.22,10.753-18.22Z" transform="translate(250 343.72)" fill="#2cceff"/>
  </g>
</svg>
