<?xml version="1.0" encoding="utf-8"?>
<!-- Generator: Adobe Illustrator 24.1.2, SVG Export Plug-In . SVG Version: 6.00 Build 0)  -->
<svg version="1.1" id="Layer_1" xmlns="http://www.w3.org/2000/svg" xmlns:xlink="http://www.w3.org/1999/xlink" x="0px" y="0px"
	 viewBox="0 0 187 183" style="enable-background:new 0 0 187 183;" xml:space="preserve">
<style type="text/css">
	.st0{fill:#D4D8DD;}
	.st1{fill:#2CCEFF;}
</style>
<g id="Group_11" transform="translate(-163 -178)">
	<g id="Group_8" transform="translate(29 -9)">
		<ellipse id="Ellipse_8" class="st0" cx="255" cy="227.5" rx="33" ry="32.5"/>
		<ellipse id="Ellipse_1" class="st0" cx="162.5" cy="243" rx="28.5" ry="28"/>
		<circle id="Ellipse_7" class="st0" cx="294" cy="238" r="27"/>
		<ellipse id="Ellipse_9" class="st0" cx="255" cy="244.5" rx="33" ry="32.5"/>
		<circle id="Ellipse_6" class="st0" cx="203.5" cy="233.5" r="46.5"/>
	</g>
	<path id="Path_11" class="st1" d="M214.8,298.5c0,0,10.8,18.8,10.8,24.7c0,5.9-4.8,10.8-10.8,10.8c-5.9,0-10.8-4.8-10.8-10.8
		C204,317.3,214.8,298.5,214.8,298.5z"/>
	<path id="Path_12" class="st1" d="M256.5,280.5c0,0,10.8,18.8,10.8,24.7c0,5.9-4.8,10.8-10.8,10.8c-5.9,0-10.8-4.8-10.8-10.8
		C245.8,299.3,256.5,280.5,256.5,280.5z"/>
	<path id="Path_13" class="st1" d="M282,325.5c0,0,10.8,18.8,10.8,24.7c0,5.9-4.8,10.8-10.8,10.8s-10.8-4.8-10.8-10.8
		C271.3,344.3,282,325.5,282,325.5z"/>
</g>
</svg>
